<svg version="1.1" id="Layer_1" xmlns="http://www.w3.org/2000/svg" xmlns:xlink="http://www.w3.org/1999/xlink" x="0px" y="0px"
	 width="100%" viewBox="0 0 500 500" enable-background="new 0 0 500 500" xml:space="preserve">
<path fill="#FFFFFF" opacity="1.000000" stroke="none" 
	d="
M271.000000,501.000000 
	C180.666687,501.000000 90.833374,501.000000 1.000048,501.000000 
	C1.000032,334.333405 1.000032,167.666794 1.000016,1.000138 
	C167.666565,1.000092 334.333130,1.000092 500.999756,1.000046 
	C500.999847,167.666519 500.999847,334.333038 500.999939,500.999786 
	C424.500000,501.000000 348.000000,501.000000 271.000000,501.000000 
M145.681961,155.247421 
	C137.801071,179.617081 129.814880,203.953735 122.150208,228.391220 
	C120.969048,232.157120 119.320259,233.107849 115.568886,233.082489 
	C90.072891,232.910172 64.575180,232.988312 39.078022,233.002472 
	C37.544823,233.003326 36.011700,233.149506 33.649815,233.270554 
	C35.338108,234.592438 36.219982,235.331436 37.149933,236.003952 
	C58.203602,251.229385 79.216904,266.511566 100.374435,281.591339 
	C103.234161,283.629578 103.654106,285.384277 102.589996,288.571655 
	C95.795593,308.923218 89.193817,329.339203 82.544159,349.739014 
	C80.725243,355.319061 78.959480,360.916473 76.849182,367.505493 
	C78.764107,366.182465 79.724602,365.551086 80.651489,364.873688 
	C101.628319,349.543671 122.568329,334.162750 143.625244,318.943573 
	C145.791885,317.377625 148.576843,316.129425 151.202759,315.820404 
	C175.506424,312.960175 199.838470,310.341431 224.161713,307.647278 
	C253.445770,304.403656 282.729828,301.160156 312.012756,297.906097 
	C327.696716,296.163239 343.378235,294.398285 357.133942,292.858917 
	C345.402222,292.858917 331.775238,292.598114 318.161011,292.904602 
	C262.523621,294.157135 206.889496,295.557953 151.257584,297.033051 
	C148.949722,297.094269 146.339722,297.963409 144.443985,299.281189 
	C135.556732,305.458862 126.878510,311.936768 118.108337,318.283539 
	C114.597733,320.824066 111.042641,323.303131 106.292198,326.672363 
	C111.878784,309.590576 116.969582,294.024750 122.044121,278.508667 
	C108.519051,268.687897 95.405563,259.165985 82.292084,249.644058 
	C82.420128,249.309143 82.548172,248.974213 82.676208,248.639297 
	C84.278992,248.639297 85.881767,248.639297 87.484550,248.639297 
	C100.816399,248.639252 114.149376,248.545822 127.479263,248.707520 
	C130.649750,248.745972 132.232239,247.879776 133.108871,244.671585 
	C134.860825,238.260147 137.066177,231.971649 139.118195,225.643372 
	C141.769821,217.465927 144.454636,209.299240 147.481613,200.037216 
	C152.556168,215.738739 157.341431,230.262085 161.891190,244.858841 
	C162.814163,247.819870 164.054764,248.522568 167.173828,248.340103 
	C210.575119,245.801117 253.986130,243.426758 297.397308,241.058655 
	C331.162537,239.216766 364.932251,237.457932 398.697784,235.621796 
	C408.270752,235.101227 417.836029,234.438889 427.404816,233.841553 
	C427.393982,233.557571 427.383148,233.273605 427.372284,232.989624 
	C343.091034,232.989624 258.809814,232.989624 174.380707,232.989624 
	C165.458252,205.394028 156.632690,178.098099 147.532532,149.952850 
	C146.781235,152.074768 146.344040,153.309570 145.681961,155.247421 
M117.605568,260.924286 
	C122.283997,264.110260 127.085770,267.136780 131.555023,270.593231 
	C132.687088,271.468750 133.522461,273.896332 133.188034,275.299408 
	C131.656891,281.723145 129.661697,288.036224 127.483986,295.602142 
	C134.555527,290.293091 140.612839,285.745453 146.783173,281.113007 
	C153.180206,285.437134 159.363205,289.616638 166.753372,294.612091 
	C163.835480,286.221710 161.354279,279.087036 158.810028,271.771088 
	C164.860596,267.014313 170.774933,262.364624 177.272202,257.256653 
	C170.040054,257.256653 163.753983,257.037109 157.494446,257.349609 
	C154.379791,257.505127 153.068542,256.418549 152.169159,253.605240 
	C150.200409,247.446854 147.930176,241.384872 145.456604,234.355789 
	C143.498154,240.855774 141.401505,246.328568 140.277359,251.994324 
	C139.298386,256.928497 136.886871,258.358521 132.159500,258.046600 
	C126.670975,257.684479 121.140236,257.962189 115.627815,257.962189 
	C115.604752,258.398499 115.581680,258.834808 115.558609,259.271149 
	C116.050842,259.683441 116.543083,260.095764 117.605568,260.924286 
M247.216736,254.218491 
	C239.796646,249.610916 230.644943,249.841904 223.898972,254.806961 
	C215.763016,260.795074 214.129150,273.469421 220.679276,279.783203 
	C226.924454,285.803040 239.606659,285.122437 246.629059,278.390564 
	C253.365784,271.932526 253.849808,261.890106 247.216736,254.218491 
M389.837585,244.541458 
	C382.259583,242.706558 375.215546,243.597229 369.360138,249.118591 
	C361.421844,256.604034 362.206451,269.815582 370.725647,274.578979 
	C379.794128,279.649506 393.384857,275.224854 397.688110,265.800934 
	C401.685028,257.047852 398.927795,248.948059 389.837585,244.541458 
M319.966339,255.009705 
	C321.883423,255.445679 323.800537,255.881638 325.933167,256.366638 
	C327.002167,253.892105 328.026215,251.521591 329.190613,248.826279 
	C322.501343,246.143448 316.160431,246.082397 309.863586,248.319183 
	C304.663635,250.166306 301.643127,254.629456 302.086243,259.330902 
	C302.596344,264.742950 306.700531,266.092346 311.096161,267.148621 
	C313.267578,267.670380 315.370728,268.476318 317.504730,269.153687 
	C317.333344,269.987030 317.161926,270.820404 316.990509,271.653778 
	C312.278290,271.260620 307.566040,270.867462 302.308929,270.428833 
	C301.470581,272.261780 300.342255,274.728760 299.112762,277.416962 
	C306.900421,280.519745 314.201355,281.022583 321.420166,277.787842 
	C325.890259,275.784790 328.459076,272.190948 327.988525,267.060516 
	C327.531036,262.072449 323.675507,260.854553 319.636414,259.884857 
	C317.258911,259.314087 314.919739,258.583527 312.563324,257.924835 
	C312.627045,257.245270 312.690765,256.565735 312.754486,255.886169 
	C314.889008,255.577667 317.023560,255.269165 319.966339,255.009705 
M331.406982,265.711426 
	C330.863556,269.735413 330.320160,273.759399 329.767517,277.851776 
	C333.436615,277.851776 336.548157,277.851776 339.892029,277.851776 
	C340.452698,275.141144 340.974884,272.616699 341.310303,270.995117 
	C346.548065,269.592041 351.379578,268.922363 355.642700,266.995331 
	C360.791840,264.667786 362.936584,258.721741 361.542725,253.537918 
	C360.265503,248.787888 356.560150,246.134766 350.579132,245.991989 
	C345.174164,245.862976 339.763672,245.964722 334.398560,245.964722 
	C333.786530,250.117065 333.353821,253.057312 332.919647,255.997360 
	C332.483734,258.948944 332.046356,261.900330 331.406982,265.711426 
M282.516052,268.969666 
	C288.667236,260.590637 286.118042,251.405823 276.928802,250.286682 
	C270.799438,249.540207 264.505554,250.144913 258.337280,250.144913 
	C256.679718,261.416199 255.192566,271.528625 253.691223,281.737671 
	C257.397095,281.737671 260.617706,281.737671 263.966187,281.737671 
	C264.494751,279.022522 264.960754,276.628693 265.156250,275.624390 
	C271.356354,273.364990 276.672028,271.427887 282.516052,268.969666 
M188.338165,255.783585 
	C188.091888,257.828583 187.845612,259.873566 187.572174,262.144104 
	C190.858749,262.144104 193.474411,262.144104 196.443909,262.144104 
	C195.365936,269.803986 194.319656,277.238708 193.274002,284.668945 
	C196.923630,284.668945 200.179718,284.668945 203.625610,284.668945 
	C204.854340,276.712555 206.032730,269.082184 207.231888,261.317322 
	C210.358200,261.124237 213.131882,260.952911 216.325409,260.755646 
	C216.689133,258.122040 217.039032,255.588440 217.451477,252.602036 
	C210.401917,252.943832 203.961929,253.154541 197.539520,253.612137 
	C194.528351,253.826675 191.551086,254.517273 188.338165,255.783585 
M426.021973,250.237061 
	C427.624237,250.099564 429.226501,249.962067 430.836060,249.823959 
	C431.230499,247.075531 431.573212,244.687546 431.986511,241.807724 
	C422.141205,242.303497 412.726868,242.777573 403.177185,243.258453 
	C402.797363,246.064941 402.455505,248.590714 402.079712,251.367371 
	C405.374634,251.367371 408.127014,251.367371 411.011047,251.367371 
	C409.901733,259.030853 408.833740,266.408844 407.745758,273.924805 
	C411.373016,273.924805 414.643768,273.924805 418.172852,273.924805 
	C419.155609,267.266571 420.231232,260.878296 420.984528,254.452255 
	C421.305420,251.715164 422.049347,249.977859 426.021973,250.237061 
z"/>
<path fill="#FF7648" opacity="1.000000" stroke="none" 
	d="
M145.794403,154.895889 
	C146.344040,153.309570 146.781235,152.074768 147.532532,149.952850 
	C156.632690,178.098099 165.458252,205.394028 174.380707,232.989624 
	C258.809814,232.989624 343.091034,232.989624 427.372284,232.989624 
	C427.383148,233.273605 427.393982,233.557571 427.404816,233.841553 
	C417.836029,234.438889 408.270752,235.101227 398.697784,235.621796 
	C364.932251,237.457932 331.162537,239.216766 297.397308,241.058655 
	C253.986130,243.426758 210.575119,245.801117 167.173828,248.340103 
	C164.054764,248.522568 162.814163,247.819870 161.891190,244.858841 
	C157.341431,230.262085 152.556168,215.738739 147.481613,200.037216 
	C144.454636,209.299240 141.769821,217.465927 139.118195,225.643372 
	C137.066177,231.971649 134.860825,238.260147 133.108871,244.671585 
	C132.232239,247.879776 130.649750,248.745972 127.479263,248.707520 
	C114.149376,248.545822 100.816399,248.639252 87.484550,248.639297 
	C85.881767,248.639297 84.278992,248.639297 82.676208,248.639297 
	C82.548172,248.974213 82.420128,249.309143 82.292084,249.644058 
	C95.405563,259.165985 108.519051,268.687897 122.044121,278.508667 
	C116.969582,294.024750 111.878784,309.590576 106.292198,326.672363 
	C111.042641,323.303131 114.597733,320.824066 118.108337,318.283539 
	C126.878510,311.936768 135.556732,305.458862 144.443985,299.281189 
	C146.339722,297.963409 148.949722,297.094269 151.257584,297.033051 
	C206.889496,295.557953 262.523621,294.157135 318.161011,292.904602 
	C331.775238,292.598114 345.402222,292.858917 357.133942,292.858917 
	C343.378235,294.398285 327.696716,296.163239 312.012756,297.906097 
	C282.729828,301.160156 253.445770,304.403656 224.161713,307.647278 
	C199.838470,310.341431 175.506424,312.960175 151.202759,315.820404 
	C148.576843,316.129425 145.791885,317.377625 143.625244,318.943573 
	C122.568329,334.162750 101.628319,349.543671 80.651489,364.873688 
	C79.724602,365.551086 78.764107,366.182465 76.849182,367.505493 
	C78.959480,360.916473 80.725243,355.319061 82.544159,349.739014 
	C89.193817,329.339203 95.795593,308.923218 102.589996,288.571655 
	C103.654106,285.384277 103.234161,283.629578 100.374435,281.591339 
	C79.216904,266.511566 58.203602,251.229385 37.149933,236.003952 
	C36.219982,235.331436 35.338108,234.592438 33.649815,233.270554 
	C36.011700,233.149506 37.544823,233.003326 39.078022,233.002472 
	C64.575180,232.988312 90.072891,232.910172 115.568886,233.082489 
	C119.320259,233.107849 120.969048,232.157120 122.150208,228.391220 
	C129.814880,203.953735 137.801071,179.617081 145.794403,154.895889 
z"/>
<path fill="#E05D32" opacity="1.000000" stroke="none" 
	d="
M117.320450,260.716187 
	C116.543083,260.095764 116.050842,259.683441 115.558609,259.271149 
	C115.581680,258.834808 115.604752,258.398499 115.627815,257.962189 
	C121.140236,257.962189 126.670975,257.684479 132.159500,258.046600 
	C136.886871,258.358521 139.298386,256.928497 140.277359,251.994324 
	C141.401505,246.328568 143.498154,240.855774 145.456604,234.355789 
	C147.930176,241.384872 150.200409,247.446854 152.169159,253.605240 
	C153.068542,256.418549 154.379791,257.505127 157.494446,257.349609 
	C163.753983,257.037109 170.040054,257.256653 177.272202,257.256653 
	C170.774933,262.364624 164.860596,267.014313 158.810028,271.771088 
	C161.354279,279.087036 163.835480,286.221710 166.753372,294.612091 
	C159.363205,289.616638 153.180206,285.437134 146.783173,281.113007 
	C140.612839,285.745453 134.555527,290.293091 127.483986,295.602142 
	C129.661697,288.036224 131.656891,281.723145 133.188034,275.299408 
	C133.522461,273.896332 132.687088,271.468750 131.555023,270.593231 
	C127.085770,267.136780 122.283997,264.110260 117.320450,260.716187 
z"/>
<path fill="#070707" opacity="1.000000" stroke="none" 
	d="
M247.493439,254.466492 
	C253.849808,261.890106 253.365784,271.932526 246.629059,278.390564 
	C239.606659,285.122437 226.924454,285.803040 220.679276,279.783203 
	C214.129150,273.469421 215.763016,260.795074 223.898972,254.806961 
	C230.644943,249.841904 239.796646,249.610916 247.493439,254.466492 
M237.176208,259.779755 
	C235.708603,259.840607 233.628952,259.309296 232.889008,260.074127 
	C230.732910,262.302704 228.406876,264.833740 227.538834,267.671722 
	C226.991943,269.459778 228.344025,273.013641 229.928040,273.958435 
	C231.769989,275.057129 235.203995,274.990479 237.229218,273.984467 
	C242.444901,271.393646 242.644043,263.866364 237.176208,259.779755 
z"/>
<path fill="#060606" opacity="1.000000" stroke="none" 
	d="
M390.193634,244.686005 
	C398.927795,248.948059 401.685028,257.047852 397.688110,265.800934 
	C393.384857,275.224854 379.794128,279.649506 370.725647,274.578979 
	C362.206451,269.815582 361.421844,256.604034 369.360138,249.118591 
	C375.215546,243.597229 382.259583,242.706558 390.193634,244.686005 
M388.563171,257.036163 
	C387.539886,253.086746 384.865753,251.654221 381.042480,252.388199 
	C376.997131,253.164825 374.374908,257.127716 374.582947,261.818115 
	C374.733948,265.223083 376.203308,267.629059 379.828674,267.944244 
	C384.083038,268.314117 386.771729,266.084473 388.071777,262.194427 
	C388.533966,260.811554 388.506836,259.265167 388.563171,257.036163 
z"/>
<path fill="#080808" opacity="1.000000" stroke="none" 
	d="
M319.562195,254.985199 
	C317.023560,255.269165 314.889008,255.577667 312.754486,255.886169 
	C312.690765,256.565735 312.627045,257.245270 312.563324,257.924835 
	C314.919739,258.583527 317.258911,259.314087 319.636414,259.884857 
	C323.675507,260.854553 327.531036,262.072449 327.988525,267.060516 
	C328.459076,272.190948 325.890259,275.784790 321.420166,277.787842 
	C314.201355,281.022583 306.900421,280.519745 299.112762,277.416962 
	C300.342255,274.728760 301.470581,272.261780 302.308929,270.428833 
	C307.566040,270.867462 312.278290,271.260620 316.990509,271.653778 
	C317.161926,270.820404 317.333344,269.987030 317.504730,269.153687 
	C315.370728,268.476318 313.267578,267.670380 311.096161,267.148621 
	C306.700531,266.092346 302.596344,264.742950 302.086243,259.330902 
	C301.643127,254.629456 304.663635,250.166306 309.863586,248.319183 
	C316.160431,246.082397 322.501343,246.143448 329.190613,248.826279 
	C328.026215,251.521591 327.002167,253.892105 325.933167,256.366638 
	C323.800537,255.881638 321.883423,255.445679 319.562195,254.985199 
z"/>
<path fill="#070707" opacity="1.000000" stroke="none" 
	d="
M331.508301,265.281616 
	C332.046356,261.900330 332.483734,258.948944 332.919647,255.997360 
	C333.353821,253.057312 333.786530,250.117065 334.398560,245.964722 
	C339.763672,245.964722 345.174164,245.862976 350.579132,245.991989 
	C356.560150,246.134766 360.265503,248.787888 361.542725,253.537918 
	C362.936584,258.721741 360.791840,264.667786 355.642700,266.995331 
	C351.379578,268.922363 346.548065,269.592041 341.310303,270.995117 
	C340.974884,272.616699 340.452698,275.141144 339.892029,277.851776 
	C336.548157,277.851776 333.436615,277.851776 329.767517,277.851776 
	C330.320160,273.759399 330.863556,269.735413 331.508301,265.281616 
M349.734863,254.683014 
	C347.842957,254.446243 345.951050,254.209488 343.622498,253.918076 
	C343.281372,256.755005 343.001648,259.081390 342.716675,261.451141 
	C350.501007,261.680908 351.688629,260.633545 349.734863,254.683014 
z"/>
<path fill="#070707" opacity="1.000000" stroke="none" 
	d="
M282.251862,269.230225 
	C276.672028,271.427887 271.356354,273.364990 265.156250,275.624390 
	C264.960754,276.628693 264.494751,279.022522 263.966187,281.737671 
	C260.617706,281.737671 257.397095,281.737671 253.691223,281.737671 
	C255.192566,271.528625 256.679718,261.416199 258.337280,250.144913 
	C264.505554,250.144913 270.799438,249.540207 276.928802,250.286682 
	C286.118042,251.405823 288.667236,260.590637 282.251862,269.230225 
M270.083069,265.634918 
	C271.044128,265.426727 272.426147,265.539307 272.879578,264.944275 
	C273.857117,263.661499 275.315094,261.426971 274.837738,260.649719 
	C274.040833,259.352173 271.811981,258.164795 270.317413,258.307526 
	C269.112823,258.422577 267.627991,260.410095 267.139252,261.860596 
	C266.651581,263.308014 265.474792,266.140167 270.083069,265.634918 
z"/>
<path fill="#070707" opacity="1.000000" stroke="none" 
	d="
M188.448303,255.387848 
	C191.551086,254.517273 194.528351,253.826675 197.539520,253.612137 
	C203.961929,253.154541 210.401917,252.943832 217.451477,252.602036 
	C217.039032,255.588440 216.689133,258.122040 216.325409,260.755646 
	C213.131882,260.952911 210.358200,261.124237 207.231888,261.317322 
	C206.032730,269.082184 204.854340,276.712555 203.625610,284.668945 
	C200.179718,284.668945 196.923630,284.668945 193.274002,284.668945 
	C194.319656,277.238708 195.365936,269.803986 196.443909,262.144104 
	C193.474411,262.144104 190.858749,262.144104 187.572174,262.144104 
	C187.845612,259.873566 188.091888,257.828583 188.448303,255.387848 
z"/>
<path fill="#060606" opacity="1.000000" stroke="none" 
	d="
M425.584351,250.263519 
	C422.049347,249.977859 421.305420,251.715164 420.984528,254.452255 
	C420.231232,260.878296 419.155609,267.266571 418.172852,273.924805 
	C414.643768,273.924805 411.373016,273.924805 407.745758,273.924805 
	C408.833740,266.408844 409.901733,259.030853 411.011047,251.367371 
	C408.127014,251.367371 405.374634,251.367371 402.079712,251.367371 
	C402.455505,248.590714 402.797363,246.064941 403.177185,243.258453 
	C412.726868,242.777573 422.141205,242.303497 431.986511,241.807724 
	C431.573212,244.687546 431.230499,247.075531 430.836060,249.823959 
	C429.226501,249.962067 427.624237,250.099564 425.584351,250.263519 
z"/>
<path fill="#F7F7F7" opacity="1.000000" stroke="none" 
	d="
M237.593109,259.890991 
	C242.644043,263.866364 242.444901,271.393646 237.229218,273.984467 
	C235.203995,274.990479 231.769989,275.057129 229.928040,273.958435 
	C228.344025,273.013641 226.991943,269.459778 227.538834,267.671722 
	C228.406876,264.833740 230.732910,262.302704 232.889008,260.074127 
	C233.628952,259.309296 235.708603,259.840607 237.593109,259.890991 
z"/>
<path fill="#F6F6F6" opacity="1.000000" stroke="none" 
	d="
M388.633118,257.414795 
	C388.506836,259.265167 388.533966,260.811554 388.071777,262.194427 
	C386.771729,266.084473 384.083038,268.314117 379.828674,267.944244 
	C376.203308,267.629059 374.733948,265.223083 374.582947,261.818115 
	C374.374908,257.127716 376.997131,253.164825 381.042480,252.388199 
	C384.865753,251.654221 387.539886,253.086746 388.633118,257.414795 
z"/>
<path fill="#E9E9E9" opacity="1.000000" stroke="none" 
	d="
M350.076416,254.919586 
	C351.688629,260.633545 350.501007,261.680908 342.716675,261.451141 
	C343.001648,259.081390 343.281372,256.755005 343.622498,253.918076 
	C345.951050,254.209488 347.842957,254.446243 350.076416,254.919586 
z"/>
<path fill="#E9E9E9" opacity="1.000000" stroke="none" 
	d="
M269.660614,265.666931 
	C265.474792,266.140167 266.651581,263.308014 267.139252,261.860596 
	C267.627991,260.410095 269.112823,258.422577 270.317413,258.307526 
	C271.811981,258.164795 274.040833,259.352173 274.837738,260.649719 
	C275.315094,261.426971 273.857117,263.661499 272.879578,264.944275 
	C272.426147,265.539307 271.044128,265.426727 269.660614,265.666931 
z"/>
</svg>